<svg xmlns="http://www.w3.org/2000/svg" xmlns:xlink="http://www.w3.org/1999/xlink" width="266" zoomAndPan="magnify" viewBox="0 0 199.5 54.75" height="73" preserveAspectRatio="xMidYMid meet" version="1.0"><defs><g/><clipPath id="96f3ac38c2"><path d="M 0.203125 0 L 41.371094 0 L 41.371094 54.261719 L 0.203125 54.261719 Z M 0.203125 0 " clip-rule="nonzero"/></clipPath><clipPath id="fc1000fc3f"><path d="M 22.191406 4.871094 L 38.820312 21.394531 C 42.21875 24.773438 42.21875 30.28125 38.820312 33.660156 L 22.984375 49.390625 L 20.699219 47.121094 L 18.167969 44.605469 L 16.332031 42.78125 L 15.359375 43.746094 L 14.496094 44.605469 L 14.046875 45.050781 L 11.554688 42.578125 L 11.675781 42.457031 L 14.003906 40.144531 L 12.738281 38.886719 L 21.085938 30.59375 C 22.785156 28.90625 22.785156 26.148438 21.085938 24.460938 L 11.941406 15.378906 L 13.207031 14.121094 L 10.882812 11.808594 L 10.757812 11.6875 L 13.25 9.210938 L 13.699219 9.660156 L 14.5625 10.515625 L 15.535156 11.484375 L 17.371094 9.660156 L 19.902344 7.144531 Z M 12.308594 53.386719 L 13.492188 52.210938 L 12.308594 51.035156 L 11.125 52.210938 Z M 6.960938 49.980469 L 7.859375 49.085938 L 6.960938 48.195312 L 6.0625 49.085938 Z M 8.207031 52.921875 L 9.328125 51.804688 L 8.207031 50.691406 L 7.082031 51.804688 Z M 3.878906 50.769531 L 4.714844 49.941406 L 3.878906 49.109375 L 3.042969 49.941406 Z M 1.347656 49.3125 L 1.695312 48.964844 L 1.347656 48.621094 L 1 48.964844 Z M 3.796875 47.972656 L 4.308594 47.464844 L 3.796875 46.957031 L 3.285156 47.464844 Z M 6.265625 45.800781 L 7.023438 45.050781 L 6.265625 44.300781 L 5.511719 45.050781 Z M 8.246094 47.566406 L 9.0625 46.753906 L 8.246094 45.945312 L 7.429688 46.753906 Z M 10.636719 42.152344 L 11.960938 40.832031 L 10.636719 39.515625 L 9.308594 40.832031 Z M 9.003906 44.21875 L 9.902344 43.328125 L 9.003906 42.433594 L 8.105469 43.328125 Z M 11.1875 46.957031 L 12.675781 45.476562 L 11.1875 43.996094 L 9.695312 45.476562 Z M 10.144531 50.488281 L 11.410156 49.230469 L 10.144531 47.972656 L 8.878906 49.230469 Z M 12.515625 49.230469 L 13.574219 48.175781 L 12.515625 47.121094 L 11.453125 48.175781 Z M 14.921875 47.242188 L 16.25 45.921875 L 14.921875 44.605469 L 13.597656 45.921875 Z M 15.453125 51.582031 L 17.210938 49.839844 L 15.453125 48.09375 L 13.699219 49.839844 Z M 16.839844 54.261719 L 18.679688 52.433594 L 16.839844 50.609375 L 15.003906 52.433594 Z M 19.3125 51.480469 L 20.496094 50.304688 L 19.3125 49.128906 L 18.128906 50.304688 Z M 15.882812 46.875 L 18.414062 49.390625 L 20.699219 47.121094 L 23.230469 44.605469 L 20.699219 42.089844 L 18.167969 44.605469 L 17.195312 45.574219 L 16.332031 46.429688 Z M 11.515625 0.875 L 12.699219 2.050781 L 11.515625 3.226562 L 10.328125 2.050781 Z M 6.164062 4.285156 L 7.0625 5.175781 L 6.164062 6.066406 L 5.265625 5.175781 Z M 7.410156 1.34375 L 8.535156 2.457031 L 7.410156 3.574219 L 6.289062 2.457031 Z M 3.082031 3.492188 L 3.917969 4.324219 L 3.082031 5.15625 L 2.246094 4.324219 Z M 0.550781 4.953125 L 0.898438 5.296875 L 0.550781 5.640625 L 0.203125 5.296875 Z M 3 6.292969 L 3.511719 6.796875 L 3 7.304688 L 2.492188 6.796875 Z M 5.472656 8.460938 L 6.226562 9.210938 L 5.472656 9.960938 L 4.714844 9.210938 Z M 7.453125 6.695312 L 8.269531 7.507812 L 7.453125 8.320312 L 6.632812 7.507812 Z M 9.839844 12.113281 L 11.167969 13.429688 L 9.839844 14.75 L 8.511719 13.429688 Z M 8.207031 10.042969 L 9.105469 10.9375 L 8.207031 11.828125 L 7.308594 10.9375 Z M 10.390625 7.304688 L 11.882812 8.785156 L 10.390625 10.265625 L 8.902344 8.785156 Z M 9.351562 3.777344 L 10.617188 5.035156 L 9.351562 6.292969 L 8.085938 5.035156 Z M 11.71875 5.035156 L 12.78125 6.089844 L 11.71875 7.144531 L 10.65625 6.089844 Z M 14.125 7.019531 L 15.453125 8.339844 L 14.125 9.65625 L 12.800781 8.339844 Z M 14.65625 2.679688 L 16.414062 4.425781 L 14.65625 6.167969 L 12.902344 4.425781 Z M 16.046875 0.00390625 L 17.882812 1.828125 L 16.046875 3.65625 L 14.207031 1.828125 Z M 18.515625 2.78125 L 19.699219 3.957031 L 18.515625 5.136719 L 17.332031 3.957031 Z M 15.085938 7.386719 L 17.617188 4.871094 L 19.902344 7.144531 L 22.433594 9.65625 L 19.902344 12.171875 L 17.371094 9.65625 L 16.398438 8.691406 L 15.535156 7.832031 Z M 15.085938 7.386719 " clip-rule="evenodd"/></clipPath><linearGradient x1="-75.192637" gradientTransform="matrix(0.00449829, 0, 0, 0.00446939, 0.204545, 0.00374988)" y1="5369.775335" x2="9244.317088" gradientUnits="userSpaceOnUse" y2="5500.275621" id="dc220b6a24"><stop stop-opacity="1" stop-color="rgb(36.564636%, 42.167664%, 91.362%)" offset="0"/><stop stop-opacity="1" stop-color="rgb(36.557007%, 42.81311%, 91.345215%)" offset="0.00390625"/><stop stop-opacity="1" stop-color="rgb(36.550903%, 43.458557%, 91.32843%)" offset="0.0078125"/><stop stop-opacity="1" stop-color="rgb(36.5448%, 44.102478%, 91.311646%)" offset="0.0117188"/><stop stop-opacity="1" stop-color="rgb(36.538696%, 44.747925%, 91.296387%)" offset="0.015625"/><stop stop-opacity="1" stop-color="rgb(36.531067%, 45.393372%, 91.279602%)" offset="0.0195312"/><stop stop-opacity="1" stop-color="rgb(36.524963%, 46.038818%, 91.264343%)" offset="0.0234375"/><stop stop-opacity="1" stop-color="rgb(36.51886%, 46.682739%, 91.247559%)" offset="0.0273437"/><stop stop-opacity="1" stop-color="rgb(36.512756%, 47.328186%, 91.230774%)" offset="0.03125"/><stop stop-opacity="1" stop-color="rgb(36.505127%, 47.972107%, 91.213989%)" offset="0.0351562"/><stop stop-opacity="1" stop-color="rgb(36.499023%, 48.617554%, 91.19873%)" offset="0.0390625"/><stop stop-opacity="1" stop-color="rgb(36.491394%, 49.263%, 91.181946%)" offset="0.0429687"/><stop stop-opacity="1" stop-color="rgb(36.485291%, 49.908447%, 91.166687%)" offset="0.046875"/><stop stop-opacity="1" stop-color="rgb(36.479187%, 50.552368%, 91.149902%)" offset="0.0507812"/><stop stop-opacity="1" stop-color="rgb(36.473083%, 51.197815%, 91.133118%)" offset="0.0546875"/><stop stop-opacity="1" stop-color="rgb(36.465454%, 51.843262%, 91.116333%)" offset="0.0585937"/><stop stop-opacity="1" stop-color="rgb(36.459351%, 52.488708%, 91.101074%)" offset="0.0625"/><stop stop-opacity="1" stop-color="rgb(36.453247%, 53.132629%, 91.08429%)" offset="0.0664062"/><stop stop-opacity="1" stop-color="rgb(36.447144%, 53.778076%, 91.069031%)" offset="0.0703125"/><stop stop-opacity="1" stop-color="rgb(36.439514%, 54.421997%, 91.052246%)" offset="0.0742187"/><stop stop-opacity="1" stop-color="rgb(36.433411%, 55.067444%, 91.035461%)" offset="0.078125"/><stop stop-opacity="1" stop-color="rgb(36.427307%, 55.712891%, 91.018677%)" offset="0.0820312"/><stop stop-opacity="1" stop-color="rgb(36.421204%, 56.358337%, 91.003418%)" offset="0.0859375"/><stop stop-opacity="1" stop-color="rgb(36.413574%, 57.002258%, 90.986633%)" offset="0.0898437"/><stop stop-opacity="1" stop-color="rgb(36.407471%, 57.647705%, 90.971375%)" offset="0.09375"/><stop stop-opacity="1" stop-color="rgb(36.401367%, 58.293152%, 90.95459%)" offset="0.0976562"/><stop stop-opacity="1" stop-color="rgb(36.395264%, 58.938599%, 90.937805%)" offset="0.101562"/><stop stop-opacity="1" stop-color="rgb(36.387634%, 59.58252%, 90.921021%)" offset="0.105469"/><stop stop-opacity="1" stop-color="rgb(36.381531%, 60.227966%, 90.905762%)" offset="0.109375"/><stop stop-opacity="1" stop-color="rgb(36.375427%, 60.871887%, 90.888977%)" offset="0.113281"/><stop stop-opacity="1" stop-color="rgb(36.369324%, 61.517334%, 90.873718%)" offset="0.117188"/><stop stop-opacity="1" stop-color="rgb(36.361694%, 62.162781%, 90.856934%)" offset="0.121094"/><stop stop-opacity="1" stop-color="rgb(36.355591%, 62.808228%, 90.840149%)" offset="0.125"/><stop stop-opacity="1" stop-color="rgb(36.349487%, 63.452148%, 90.823364%)" offset="0.128906"/><stop stop-opacity="1" stop-color="rgb(36.343384%, 64.097595%, 90.808105%)" offset="0.132812"/><stop stop-opacity="1" stop-color="rgb(36.335754%, 64.743042%, 90.791321%)" offset="0.136719"/><stop stop-opacity="1" stop-color="rgb(36.329651%, 65.388489%, 90.774536%)" offset="0.140625"/><stop stop-opacity="1" stop-color="rgb(36.322021%, 66.03241%, 90.757751%)" offset="0.144531"/><stop stop-opacity="1" stop-color="rgb(36.315918%, 66.677856%, 90.742493%)" offset="0.148438"/><stop stop-opacity="1" stop-color="rgb(36.309814%, 67.321777%, 90.725708%)" offset="0.152344"/><stop stop-opacity="1" stop-color="rgb(36.303711%, 67.967224%, 90.710449%)" offset="0.15625"/><stop stop-opacity="1" stop-color="rgb(36.296082%, 68.612671%, 90.693665%)" offset="0.160156"/><stop stop-opacity="1" stop-color="rgb(36.289978%, 69.258118%, 90.67688%)" offset="0.164062"/><stop stop-opacity="1" stop-color="rgb(36.283875%, 69.902039%, 90.660095%)" offset="0.167969"/><stop stop-opacity="1" stop-color="rgb(36.277771%, 70.547485%, 90.644836%)" offset="0.171875"/><stop stop-opacity="1" stop-color="rgb(36.270142%, 71.192932%, 90.628052%)" offset="0.175781"/><stop stop-opacity="1" stop-color="rgb(36.264038%, 71.838379%, 90.612793%)" offset="0.179688"/><stop stop-opacity="1" stop-color="rgb(36.257935%, 72.4823%, 90.596008%)" offset="0.183594"/><stop stop-opacity="1" stop-color="rgb(36.251831%, 73.127747%, 90.579224%)" offset="0.1875"/><stop stop-opacity="1" stop-color="rgb(36.244202%, 73.771667%, 90.562439%)" offset="0.191406"/><stop stop-opacity="1" stop-color="rgb(36.238098%, 74.417114%, 90.54718%)" offset="0.195312"/><stop stop-opacity="1" stop-color="rgb(36.231995%, 75.062561%, 90.530396%)" offset="0.199219"/><stop stop-opacity="1" stop-color="rgb(36.225891%, 75.708008%, 90.515137%)" offset="0.203125"/><stop stop-opacity="1" stop-color="rgb(36.218262%, 76.351929%, 90.498352%)" offset="0.207031"/><stop stop-opacity="1" stop-color="rgb(36.212158%, 76.997375%, 90.481567%)" offset="0.210938"/><stop stop-opacity="1" stop-color="rgb(36.206055%, 77.642822%, 90.464783%)" offset="0.214844"/><stop stop-opacity="1" stop-color="rgb(36.199951%, 78.288269%, 90.449524%)" offset="0.21875"/><stop stop-opacity="1" stop-color="rgb(36.192322%, 78.93219%, 90.432739%)" offset="0.222656"/><stop stop-opacity="1" stop-color="rgb(36.186218%, 79.577637%, 90.41748%)" offset="0.226562"/><stop stop-opacity="1" stop-color="rgb(36.180115%, 80.221558%, 90.400696%)" offset="0.230469"/><stop stop-opacity="1" stop-color="rgb(36.174011%, 80.867004%, 90.383911%)" offset="0.234375"/><stop stop-opacity="1" stop-color="rgb(36.166382%, 81.512451%, 90.367126%)" offset="0.238281"/><stop stop-opacity="1" stop-color="rgb(36.160278%, 82.157898%, 90.351868%)" offset="0.242188"/><stop stop-opacity="1" stop-color="rgb(36.152649%, 82.801819%, 90.335083%)" offset="0.246094"/><stop stop-opacity="1" stop-color="rgb(36.146545%, 83.447266%, 90.319824%)" offset="0.25"/><stop stop-opacity="1" stop-color="rgb(36.140442%, 84.092712%, 90.30304%)" offset="0.253906"/><stop stop-opacity="1" stop-color="rgb(36.134338%, 84.738159%, 90.286255%)" offset="0.257812"/><stop stop-opacity="1" stop-color="rgb(36.126709%, 85.38208%, 90.26947%)" offset="0.261719"/><stop stop-opacity="1" stop-color="rgb(36.120605%, 86.027527%, 90.254211%)" offset="0.265625"/><stop stop-opacity="1" stop-color="rgb(36.114502%, 86.671448%, 90.237427%)" offset="0.269531"/><stop stop-opacity="1" stop-color="rgb(36.108398%, 87.316895%, 90.222168%)" offset="0.273438"/><stop stop-opacity="1" stop-color="rgb(36.04126%, 87.709045%, 90.200806%)" offset="0.277344"/><stop stop-opacity="1" stop-color="rgb(35.975647%, 88.101196%, 90.180969%)" offset="0.28125"/><stop stop-opacity="1" stop-color="rgb(35.778809%, 87.945557%, 90.153503%)" offset="0.285156"/><stop stop-opacity="1" stop-color="rgb(35.583496%, 87.789917%, 90.126038%)" offset="0.289062"/><stop stop-opacity="1" stop-color="rgb(35.386658%, 87.634277%, 90.098572%)" offset="0.292969"/><stop stop-opacity="1" stop-color="rgb(35.191345%, 87.480164%, 90.071106%)" offset="0.296875"/><stop stop-opacity="1" stop-color="rgb(34.994507%, 87.324524%, 90.04364%)" offset="0.300781"/><stop stop-opacity="1" stop-color="rgb(34.799194%, 87.168884%, 90.016174%)" offset="0.304688"/><stop stop-opacity="1" stop-color="rgb(34.602356%, 87.013245%, 89.987183%)" offset="0.308594"/><stop stop-opacity="1" stop-color="rgb(34.407043%, 86.859131%, 89.959717%)" offset="0.3125"/><stop stop-opacity="1" stop-color="rgb(34.210205%, 86.703491%, 89.932251%)" offset="0.316406"/><stop stop-opacity="1" stop-color="rgb(34.014893%, 86.547852%, 89.904785%)" offset="0.320312"/><stop stop-opacity="1" stop-color="rgb(33.818054%, 86.392212%, 89.877319%)" offset="0.324219"/><stop stop-opacity="1" stop-color="rgb(33.622742%, 86.238098%, 89.849854%)" offset="0.328125"/><stop stop-opacity="1" stop-color="rgb(33.425903%, 86.082458%, 89.820862%)" offset="0.332031"/><stop stop-opacity="1" stop-color="rgb(33.230591%, 85.926819%, 89.793396%)" offset="0.335938"/><stop stop-opacity="1" stop-color="rgb(33.035278%, 85.771179%, 89.76593%)" offset="0.34375"/><stop stop-opacity="1" stop-color="rgb(32.643127%, 85.461426%, 89.710999%)" offset="0.347656"/><stop stop-opacity="1" stop-color="rgb(32.447815%, 85.305786%, 89.683533%)" offset="0.351563"/><stop stop-opacity="1" stop-color="rgb(32.250977%, 85.150146%, 89.656067%)" offset="0.355469"/><stop stop-opacity="1" stop-color="rgb(32.055664%, 84.996033%, 89.628601%)" offset="0.359375"/><stop stop-opacity="1" stop-color="rgb(31.858826%, 84.840393%, 89.599609%)" offset="0.363281"/><stop stop-opacity="1" stop-color="rgb(31.663513%, 84.684753%, 89.572144%)" offset="0.367188"/><stop stop-opacity="1" stop-color="rgb(31.466675%, 84.529114%, 89.544678%)" offset="0.371094"/><stop stop-opacity="1" stop-color="rgb(31.271362%, 84.375%, 89.517212%)" offset="0.375"/><stop stop-opacity="1" stop-color="rgb(31.074524%, 84.21936%, 89.489746%)" offset="0.378906"/><stop stop-opacity="1" stop-color="rgb(30.879211%, 84.063721%, 89.46228%)" offset="0.382813"/><stop stop-opacity="1" stop-color="rgb(30.682373%, 83.908081%, 89.433289%)" offset="0.386719"/><stop stop-opacity="1" stop-color="rgb(30.487061%, 83.753967%, 89.405823%)" offset="0.390625"/><stop stop-opacity="1" stop-color="rgb(30.290222%, 83.598328%, 89.378357%)" offset="0.394531"/><stop stop-opacity="1" stop-color="rgb(30.09491%, 83.442688%, 89.350891%)" offset="0.398438"/><stop stop-opacity="1" stop-color="rgb(29.898071%, 83.287048%, 89.323425%)" offset="0.402344"/><stop stop-opacity="1" stop-color="rgb(29.702759%, 83.132935%, 89.295959%)" offset="0.40625"/><stop stop-opacity="1" stop-color="rgb(29.507446%, 82.977295%, 89.268494%)" offset="0.414063"/><stop stop-opacity="1" stop-color="rgb(29.115295%, 82.666016%, 89.212036%)" offset="0.417969"/><stop stop-opacity="1" stop-color="rgb(28.919983%, 82.510376%, 89.18457%)" offset="0.421875"/><stop stop-opacity="1" stop-color="rgb(28.723145%, 82.354736%, 89.157104%)" offset="0.425781"/><stop stop-opacity="1" stop-color="rgb(28.527832%, 82.200623%, 89.129639%)" offset="0.429688"/><stop stop-opacity="1" stop-color="rgb(28.330994%, 82.044983%, 89.102173%)" offset="0.433594"/><stop stop-opacity="1" stop-color="rgb(28.135681%, 81.889343%, 89.074707%)" offset="0.4375"/><stop stop-opacity="1" stop-color="rgb(27.938843%, 81.733704%, 89.045715%)" offset="0.441406"/><stop stop-opacity="1" stop-color="rgb(27.74353%, 81.57959%, 89.01825%)" offset="0.445312"/><stop stop-opacity="1" stop-color="rgb(27.546692%, 81.42395%, 88.990784%)" offset="0.449219"/><stop stop-opacity="1" stop-color="rgb(27.351379%, 81.268311%, 88.963318%)" offset="0.453125"/><stop stop-opacity="1" stop-color="rgb(27.154541%, 81.112671%, 88.935852%)" offset="0.457031"/><stop stop-opacity="1" stop-color="rgb(26.959229%, 80.958557%, 88.908386%)" offset="0.460938"/><stop stop-opacity="1" stop-color="rgb(26.76239%, 80.802917%, 88.879395%)" offset="0.464844"/><stop stop-opacity="1" stop-color="rgb(26.567078%, 80.647278%, 88.851929%)" offset="0.46875"/><stop stop-opacity="1" stop-color="rgb(26.370239%, 80.491638%, 88.824463%)" offset="0.472656"/><stop stop-opacity="1" stop-color="rgb(26.174927%, 80.337524%, 88.796997%)" offset="0.476563"/><stop stop-opacity="1" stop-color="rgb(25.979614%, 80.181885%, 88.769531%)" offset="0.484375"/><stop stop-opacity="1" stop-color="rgb(25.587463%, 79.870605%, 88.7146%)" offset="0.488281"/><stop stop-opacity="1" stop-color="rgb(25.392151%, 79.716492%, 88.687134%)" offset="0.492188"/><stop stop-opacity="1" stop-color="rgb(25.195312%, 79.560852%, 88.658142%)" offset="0.496094"/><stop stop-opacity="1" stop-color="rgb(25%, 79.405212%, 88.630676%)" offset="0.5"/><stop stop-opacity="1" stop-color="rgb(24.803162%, 79.249573%, 88.60321%)" offset="0.503906"/><stop stop-opacity="1" stop-color="rgb(24.607849%, 79.095459%, 88.575745%)" offset="0.507813"/><stop stop-opacity="1" stop-color="rgb(24.411011%, 78.939819%, 88.548279%)" offset="0.511719"/><stop stop-opacity="1" stop-color="rgb(24.215698%, 78.78418%, 88.520813%)" offset="0.515625"/><stop stop-opacity="1" stop-color="rgb(24.01886%, 78.62854%, 88.491821%)" offset="0.519531"/><stop stop-opacity="1" stop-color="rgb(23.823547%, 78.474426%, 88.464355%)" offset="0.523438"/><stop stop-opacity="1" stop-color="rgb(23.626709%, 78.318787%, 88.43689%)" offset="0.527344"/><stop stop-opacity="1" stop-color="rgb(23.431396%, 78.163147%, 88.409424%)" offset="0.53125"/><stop stop-opacity="1" stop-color="rgb(23.234558%, 78.007507%, 88.381958%)" offset="0.535156"/><stop stop-opacity="1" stop-color="rgb(23.039246%, 77.853394%, 88.354492%)" offset="0.539062"/><stop stop-opacity="1" stop-color="rgb(22.842407%, 77.697754%, 88.327026%)" offset="0.542969"/><stop stop-opacity="1" stop-color="rgb(22.647095%, 77.542114%, 88.299561%)" offset="0.546875"/><stop stop-opacity="1" stop-color="rgb(22.450256%, 77.386475%, 88.270569%)" offset="0.550781"/><stop stop-opacity="1" stop-color="rgb(22.254944%, 77.232361%, 88.243103%)" offset="0.554688"/><stop stop-opacity="1" stop-color="rgb(22.059631%, 77.076721%, 88.215637%)" offset="0.5625"/><stop stop-opacity="1" stop-color="rgb(21.66748%, 76.765442%, 88.160706%)" offset="0.566406"/><stop stop-opacity="1" stop-color="rgb(21.472168%, 76.611328%, 88.13324%)" offset="0.570312"/><stop stop-opacity="1" stop-color="rgb(21.27533%, 76.455688%, 88.104248%)" offset="0.574219"/><stop stop-opacity="1" stop-color="rgb(21.080017%, 76.300049%, 88.076782%)" offset="0.578125"/><stop stop-opacity="1" stop-color="rgb(20.883179%, 76.144409%, 88.049316%)" offset="0.582031"/><stop stop-opacity="1" stop-color="rgb(20.687866%, 75.990295%, 88.021851%)" offset="0.585938"/><stop stop-opacity="1" stop-color="rgb(20.491028%, 75.834656%, 87.994385%)" offset="0.589844"/><stop stop-opacity="1" stop-color="rgb(20.295715%, 75.679016%, 87.966919%)" offset="0.59375"/><stop stop-opacity="1" stop-color="rgb(20.098877%, 75.523376%, 87.939453%)" offset="0.597656"/><stop stop-opacity="1" stop-color="rgb(19.903564%, 75.367737%, 87.911987%)" offset="0.601562"/><stop stop-opacity="1" stop-color="rgb(19.706726%, 75.212097%, 87.882996%)" offset="0.605469"/><stop stop-opacity="1" stop-color="rgb(19.511414%, 75.057983%, 87.85553%)" offset="0.609375"/><stop stop-opacity="1" stop-color="rgb(19.314575%, 74.902344%, 87.828064%)" offset="0.613281"/><stop stop-opacity="1" stop-color="rgb(19.119263%, 74.746704%, 87.800598%)" offset="0.617188"/><stop stop-opacity="1" stop-color="rgb(18.922424%, 74.591064%, 87.773132%)" offset="0.621094"/><stop stop-opacity="1" stop-color="rgb(18.727112%, 74.436951%, 87.745667%)" offset="0.625"/><stop stop-opacity="1" stop-color="rgb(18.531799%, 74.281311%, 87.716675%)" offset="0.632812"/><stop stop-opacity="1" stop-color="rgb(18.139648%, 73.970032%, 87.661743%)" offset="0.636719"/><stop stop-opacity="1" stop-color="rgb(17.944336%, 73.815918%, 87.634277%)" offset="0.640625"/><stop stop-opacity="1" stop-color="rgb(17.747498%, 73.660278%, 87.606812%)" offset="0.644531"/><stop stop-opacity="1" stop-color="rgb(17.552185%, 73.504639%, 87.579346%)" offset="0.648438"/><stop stop-opacity="1" stop-color="rgb(17.355347%, 73.348999%, 87.550354%)" offset="0.652344"/><stop stop-opacity="1" stop-color="rgb(17.160034%, 73.194885%, 87.522888%)" offset="0.65625"/><stop stop-opacity="1" stop-color="rgb(16.963196%, 73.039246%, 87.495422%)" offset="0.660156"/><stop stop-opacity="1" stop-color="rgb(16.767883%, 72.883606%, 87.467957%)" offset="0.664062"/><stop stop-opacity="1" stop-color="rgb(16.571045%, 72.727966%, 87.440491%)" offset="0.667969"/><stop stop-opacity="1" stop-color="rgb(16.375732%, 72.573853%, 87.413025%)" offset="0.671875"/><stop stop-opacity="1" stop-color="rgb(16.178894%, 72.418213%, 87.385559%)" offset="0.675781"/><stop stop-opacity="1" stop-color="rgb(15.983582%, 72.262573%, 87.358093%)" offset="0.679687"/><stop stop-opacity="1" stop-color="rgb(15.786743%, 72.106934%, 87.329102%)" offset="0.683594"/><stop stop-opacity="1" stop-color="rgb(15.591431%, 71.95282%, 87.301636%)" offset="0.6875"/><stop stop-opacity="1" stop-color="rgb(15.394592%, 71.79718%, 87.27417%)" offset="0.691406"/><stop stop-opacity="1" stop-color="rgb(15.19928%, 71.641541%, 87.246704%)" offset="0.695312"/><stop stop-opacity="1" stop-color="rgb(15.003967%, 71.485901%, 87.219238%)" offset="0.703125"/><stop stop-opacity="1" stop-color="rgb(14.611816%, 71.176147%, 87.162781%)" offset="0.707031"/><stop stop-opacity="1" stop-color="rgb(14.416504%, 71.020508%, 87.135315%)" offset="0.710938"/><stop stop-opacity="1" stop-color="rgb(14.219666%, 70.864868%, 87.107849%)" offset="0.714844"/><stop stop-opacity="1" stop-color="rgb(14.024353%, 70.710754%, 87.080383%)" offset="0.71875"/><stop stop-opacity="1" stop-color="rgb(13.827515%, 70.555115%, 87.052917%)" offset="0.722656"/><stop stop-opacity="1" stop-color="rgb(13.632202%, 70.399475%, 87.025452%)" offset="0.726562"/><stop stop-opacity="1" stop-color="rgb(13.435364%, 70.243835%, 86.997986%)" offset="0.730469"/><stop stop-opacity="1" stop-color="rgb(13.240051%, 70.089722%, 86.97052%)" offset="0.734375"/><stop stop-opacity="1" stop-color="rgb(13.043213%, 69.934082%, 86.941528%)" offset="0.738281"/><stop stop-opacity="1" stop-color="rgb(12.8479%, 69.778442%, 86.914062%)" offset="0.742188"/><stop stop-opacity="1" stop-color="rgb(12.651062%, 69.622803%, 86.886597%)" offset="0.746094"/><stop stop-opacity="1" stop-color="rgb(12.45575%, 69.468689%, 86.859131%)" offset="0.75"/><stop stop-opacity="1" stop-color="rgb(12.258911%, 69.313049%, 86.831665%)" offset="0.753906"/><stop stop-opacity="1" stop-color="rgb(12.063599%, 69.15741%, 86.804199%)" offset="0.757812"/><stop stop-opacity="1" stop-color="rgb(11.86676%, 69.00177%, 86.775208%)" offset="0.761719"/><stop stop-opacity="1" stop-color="rgb(11.671448%, 68.847656%, 86.747742%)" offset="0.765625"/><stop stop-opacity="1" stop-color="rgb(11.474609%, 68.692017%, 86.720276%)" offset="0.769531"/><stop stop-opacity="1" stop-color="rgb(11.279297%, 68.536377%, 86.69281%)" offset="0.773438"/><stop stop-opacity="1" stop-color="rgb(11.083984%, 68.380737%, 86.665344%)" offset="0.78125"/><stop stop-opacity="1" stop-color="rgb(10.691833%, 68.069458%, 86.608887%)" offset="0.785156"/><stop stop-opacity="1" stop-color="rgb(10.496521%, 67.915344%, 86.581421%)" offset="0.789062"/><stop stop-opacity="1" stop-color="rgb(10.299683%, 67.759705%, 86.553955%)" offset="0.792969"/><stop stop-opacity="1" stop-color="rgb(10.10437%, 67.604065%, 86.526489%)" offset="0.796875"/><stop stop-opacity="1" stop-color="rgb(9.907532%, 67.448425%, 86.499023%)" offset="0.800781"/><stop stop-opacity="1" stop-color="rgb(9.712219%, 67.294312%, 86.471558%)" offset="0.804687"/><stop stop-opacity="1" stop-color="rgb(9.515381%, 67.138672%, 86.444092%)" offset="0.808594"/><stop stop-opacity="1" stop-color="rgb(9.320068%, 66.983032%, 86.416626%)" offset="0.8125"/><stop stop-opacity="1" stop-color="rgb(9.12323%, 66.827393%, 86.387634%)" offset="0.816406"/><stop stop-opacity="1" stop-color="rgb(8.927917%, 66.673279%, 86.360168%)" offset="0.820312"/><stop stop-opacity="1" stop-color="rgb(8.731079%, 66.517639%, 86.332703%)" offset="0.824219"/><stop stop-opacity="1" stop-color="rgb(8.535767%, 66.362%, 86.305237%)" offset="0.828125"/><stop stop-opacity="1" stop-color="rgb(8.338928%, 66.20636%, 86.277771%)" offset="0.832031"/><stop stop-opacity="1" stop-color="rgb(8.143616%, 66.052246%, 86.250305%)" offset="0.835938"/><stop stop-opacity="1" stop-color="rgb(7.946777%, 65.896606%, 86.221313%)" offset="0.839844"/><stop stop-opacity="1" stop-color="rgb(7.751465%, 65.740967%, 86.193848%)" offset="0.84375"/><stop stop-opacity="1" stop-color="rgb(7.556152%, 65.585327%, 86.166382%)" offset="0.851562"/><stop stop-opacity="1" stop-color="rgb(7.164001%, 65.275574%, 86.11145%)" offset="0.855469"/><stop stop-opacity="1" stop-color="rgb(6.968689%, 65.119934%, 86.083984%)" offset="0.859375"/><stop stop-opacity="1" stop-color="rgb(6.771851%, 64.964294%, 86.056519%)" offset="0.863281"/><stop stop-opacity="1" stop-color="rgb(6.576538%, 64.810181%, 86.029053%)" offset="0.867188"/><stop stop-opacity="1" stop-color="rgb(6.3797%, 64.654541%, 86.000061%)" offset="0.871094"/><stop stop-opacity="1" stop-color="rgb(6.184387%, 64.498901%, 85.972595%)" offset="0.875"/><stop stop-opacity="1" stop-color="rgb(5.987549%, 64.343262%, 85.945129%)" offset="0.878906"/><stop stop-opacity="1" stop-color="rgb(5.792236%, 64.189148%, 85.917664%)" offset="0.882812"/><stop stop-opacity="1" stop-color="rgb(5.595398%, 64.033508%, 85.890198%)" offset="0.886719"/><stop stop-opacity="1" stop-color="rgb(5.400085%, 63.877869%, 85.862732%)" offset="0.890625"/><stop stop-opacity="1" stop-color="rgb(5.203247%, 63.722229%, 85.83374%)" offset="0.894531"/><stop stop-opacity="1" stop-color="rgb(5.007935%, 63.568115%, 85.806274%)" offset="0.898438"/><stop stop-opacity="1" stop-color="rgb(4.811096%, 63.412476%, 85.778809%)" offset="0.902344"/><stop stop-opacity="1" stop-color="rgb(4.615784%, 63.256836%, 85.751343%)" offset="0.90625"/><stop stop-opacity="1" stop-color="rgb(4.418945%, 63.101196%, 85.723877%)" offset="0.910156"/><stop stop-opacity="1" stop-color="rgb(4.223633%, 62.947083%, 85.696411%)" offset="0.914062"/><stop stop-opacity="1" stop-color="rgb(4.02832%, 62.791443%, 85.668945%)" offset="0.921875"/><stop stop-opacity="1" stop-color="rgb(3.636169%, 62.480164%, 85.612488%)" offset="0.925781"/><stop stop-opacity="1" stop-color="rgb(3.440857%, 62.32605%, 85.585022%)" offset="0.929687"/><stop stop-opacity="1" stop-color="rgb(3.244019%, 62.17041%, 85.557556%)" offset="0.933594"/><stop stop-opacity="1" stop-color="rgb(3.048706%, 62.014771%, 85.53009%)" offset="0.9375"/><stop stop-opacity="1" stop-color="rgb(2.851868%, 61.859131%, 85.502625%)" offset="0.941406"/><stop stop-opacity="1" stop-color="rgb(2.656555%, 61.705017%, 85.475159%)" offset="0.945312"/><stop stop-opacity="1" stop-color="rgb(2.459717%, 61.549377%, 85.446167%)" offset="0.949219"/><stop stop-opacity="1" stop-color="rgb(2.264404%, 61.393738%, 85.418701%)" offset="0.953125"/><stop stop-opacity="1" stop-color="rgb(2.067566%, 61.238098%, 85.391235%)" offset="0.957031"/><stop stop-opacity="1" stop-color="rgb(1.872253%, 61.082458%, 85.36377%)" offset="0.960938"/><stop stop-opacity="1" stop-color="rgb(1.675415%, 60.926819%, 85.336304%)" offset="0.964844"/><stop stop-opacity="1" stop-color="rgb(1.480103%, 60.772705%, 85.308838%)" offset="0.96875"/><stop stop-opacity="1" stop-color="rgb(1.283264%, 60.617065%, 85.279846%)" offset="0.972656"/><stop stop-opacity="1" stop-color="rgb(1.087952%, 60.461426%, 85.25238%)" offset="0.976562"/><stop stop-opacity="1" stop-color="rgb(0.891113%, 60.305786%, 85.224915%)" offset="0.980469"/><stop stop-opacity="1" stop-color="rgb(0.695801%, 60.151672%, 85.197449%)" offset="0.984375"/><stop stop-opacity="1" stop-color="rgb(0.498962%, 59.996033%, 85.169983%)" offset="0.988281"/><stop stop-opacity="1" stop-color="rgb(0.30365%, 59.840393%, 85.142517%)" offset="0.992188"/><stop stop-opacity="1" stop-color="rgb(0.151062%, 59.719849%, 85.121155%)" offset="1"/></linearGradient></defs><g clip-path="url(#96f3ac38c2)"><g clip-path="url(#fc1000fc3f)"><path fill="url(#dc220b6a24)" d="M 0.203125 0.00390625 L 0.203125 54.261719 L 41.371094 54.261719 L 41.371094 0.00390625 Z M 0.203125 0.00390625 " fill-rule="nonzero"/></g></g><g fill="#0097b2" fill-opacity="1"><g transform="translate(43.397324, 29.64955)"><g><path d="M 0 -11.21875 L 2.5625 -11.21875 L 5.296875 -2.71875 L 5.375 -2.71875 L 8.09375 -11.21875 L 10.65625 -11.21875 L 6.890625 0 L 3.765625 0 Z M 0 -11.21875 "/></g></g></g><g fill="#0097b2" fill-opacity="1"><g transform="translate(53.741178, 29.64955)"><g><path d="M 4.734375 0.15625 C 4.085938 0.15625 3.507812 0.0546875 3 -0.140625 C 2.488281 -0.335938 2.050781 -0.625 1.6875 -1 C 1.320312 -1.375 1.039062 -1.832031 0.84375 -2.375 C 0.65625 -2.914062 0.5625 -3.539062 0.5625 -4.25 C 0.5625 -4.957031 0.65625 -5.582031 0.84375 -6.125 C 1.039062 -6.664062 1.320312 -7.125 1.6875 -7.5 C 2.050781 -7.875 2.488281 -8.160156 3 -8.359375 C 3.507812 -8.554688 4.085938 -8.65625 4.734375 -8.65625 C 5.367188 -8.65625 5.941406 -8.554688 6.453125 -8.359375 C 6.972656 -8.160156 7.410156 -7.875 7.765625 -7.5 C 8.128906 -7.125 8.40625 -6.664062 8.59375 -6.125 C 8.789062 -5.582031 8.890625 -4.957031 8.890625 -4.25 C 8.890625 -3.539062 8.789062 -2.914062 8.59375 -2.375 C 8.40625 -1.832031 8.128906 -1.375 7.765625 -1 C 7.410156 -0.625 6.972656 -0.335938 6.453125 -0.140625 C 5.941406 0.0546875 5.367188 0.15625 4.734375 0.15625 Z M 4.734375 -1.84375 C 4.984375 -1.84375 5.222656 -1.882812 5.453125 -1.96875 C 5.691406 -2.0625 5.898438 -2.207031 6.078125 -2.40625 C 6.253906 -2.601562 6.394531 -2.851562 6.5 -3.15625 C 6.601562 -3.46875 6.65625 -3.832031 6.65625 -4.25 C 6.65625 -4.664062 6.601562 -5.023438 6.5 -5.328125 C 6.394531 -5.628906 6.253906 -5.878906 6.078125 -6.078125 C 5.898438 -6.273438 5.691406 -6.421875 5.453125 -6.515625 C 5.222656 -6.609375 4.984375 -6.65625 4.734375 -6.65625 C 4.472656 -6.65625 4.222656 -6.609375 3.984375 -6.515625 C 3.753906 -6.421875 3.550781 -6.273438 3.375 -6.078125 C 3.195312 -5.878906 3.054688 -5.628906 2.953125 -5.328125 C 2.859375 -5.023438 2.8125 -4.664062 2.8125 -4.25 C 2.8125 -3.832031 2.859375 -3.46875 2.953125 -3.15625 C 3.054688 -2.851562 3.195312 -2.601562 3.375 -2.40625 C 3.550781 -2.207031 3.753906 -2.0625 3.984375 -1.96875 C 4.222656 -1.882812 4.472656 -1.84375 4.734375 -1.84375 Z M 4.734375 -1.84375 "/></g></g></g><g fill="#0097b2" fill-opacity="1"><g transform="translate(62.882254, 29.64955)"><g><path d="M 0.96875 -8.5 L 3.203125 -8.5 L 3.203125 0 L 0.96875 0 Z M 2.078125 -9.375 C 1.710938 -9.375 1.40625 -9.492188 1.15625 -9.734375 C 0.914062 -9.984375 0.796875 -10.289062 0.796875 -10.65625 C 0.796875 -11.019531 0.914062 -11.320312 1.15625 -11.5625 C 1.40625 -11.8125 1.710938 -11.9375 2.078125 -11.9375 C 2.441406 -11.9375 2.742188 -11.8125 2.984375 -11.5625 C 3.234375 -11.320312 3.359375 -11.019531 3.359375 -10.65625 C 3.359375 -10.289062 3.234375 -9.984375 2.984375 -9.734375 C 2.742188 -9.492188 2.441406 -9.375 2.078125 -9.375 Z M 2.078125 -9.375 "/></g></g></g><g fill="#0097b2" fill-opacity="1"><g transform="translate(66.731108, 29.64955)"><g><path d="M 4.734375 0.15625 C 4.085938 0.15625 3.507812 0.0546875 3 -0.140625 C 2.488281 -0.335938 2.050781 -0.625 1.6875 -1 C 1.320312 -1.375 1.039062 -1.832031 0.84375 -2.375 C 0.65625 -2.914062 0.5625 -3.539062 0.5625 -4.25 C 0.5625 -4.957031 0.65625 -5.582031 0.84375 -6.125 C 1.039062 -6.664062 1.320312 -7.125 1.6875 -7.5 C 2.050781 -7.875 2.488281 -8.160156 3 -8.359375 C 3.507812 -8.554688 4.085938 -8.65625 4.734375 -8.65625 C 5.328125 -8.65625 5.847656 -8.570312 6.296875 -8.40625 C 6.742188 -8.238281 7.125 -8.015625 7.4375 -7.734375 C 7.757812 -7.453125 8.019531 -7.125 8.21875 -6.75 C 8.414062 -6.382812 8.5625 -6.003906 8.65625 -5.609375 L 6.40625 -5.609375 C 6.25 -5.929688 6.039062 -6.1875 5.78125 -6.375 C 5.53125 -6.5625 5.179688 -6.65625 4.734375 -6.65625 C 4.160156 -6.65625 3.695312 -6.453125 3.34375 -6.046875 C 2.988281 -5.648438 2.8125 -5.050781 2.8125 -4.25 C 2.8125 -3.445312 2.988281 -2.84375 3.34375 -2.4375 C 3.695312 -2.039062 4.160156 -1.84375 4.734375 -1.84375 C 5.179688 -1.84375 5.53125 -1.9375 5.78125 -2.125 C 6.039062 -2.3125 6.25 -2.566406 6.40625 -2.890625 L 8.65625 -2.890625 C 8.5625 -2.484375 8.414062 -2.097656 8.21875 -1.734375 C 8.019531 -1.367188 7.757812 -1.046875 7.4375 -0.765625 C 7.125 -0.484375 6.742188 -0.257812 6.296875 -0.09375 C 5.847656 0.0703125 5.328125 0.15625 4.734375 0.15625 Z M 4.734375 0.15625 "/></g></g></g><g fill="#0097b2" fill-opacity="1"><g transform="translate(75.551445, 29.64955)"><g><path d="M 4.734375 0.15625 C 4.085938 0.15625 3.507812 0.0546875 3 -0.140625 C 2.488281 -0.335938 2.050781 -0.625 1.6875 -1 C 1.320312 -1.375 1.039062 -1.832031 0.84375 -2.375 C 0.65625 -2.914062 0.5625 -3.539062 0.5625 -4.25 C 0.5625 -4.957031 0.65625 -5.582031 0.84375 -6.125 C 1.039062 -6.664062 1.320312 -7.125 1.6875 -7.5 C 2.050781 -7.875 2.488281 -8.160156 3 -8.359375 C 3.507812 -8.554688 4.085938 -8.65625 4.734375 -8.65625 C 5.347656 -8.65625 5.90625 -8.550781 6.40625 -8.34375 C 6.914062 -8.132812 7.347656 -7.835938 7.703125 -7.453125 C 8.054688 -7.078125 8.328125 -6.628906 8.515625 -6.109375 C 8.710938 -5.597656 8.8125 -5.03125 8.8125 -4.40625 C 8.8125 -4.289062 8.804688 -4.175781 8.796875 -4.0625 C 8.785156 -3.957031 8.773438 -3.863281 8.765625 -3.78125 C 8.753906 -3.6875 8.742188 -3.601562 8.734375 -3.53125 L 2.890625 -3.53125 C 2.972656 -3.050781 3.15625 -2.648438 3.4375 -2.328125 C 3.726562 -2.003906 4.160156 -1.84375 4.734375 -1.84375 C 5.171875 -1.84375 5.492188 -1.914062 5.703125 -2.0625 C 5.910156 -2.207031 6.09375 -2.398438 6.25 -2.640625 L 8.65625 -2.640625 C 8.5625 -2.273438 8.414062 -1.925781 8.21875 -1.59375 C 8.019531 -1.257812 7.757812 -0.957031 7.4375 -0.6875 C 7.125 -0.425781 6.742188 -0.21875 6.296875 -0.0625 C 5.847656 0.0820312 5.328125 0.15625 4.734375 0.15625 Z M 6.5 -5.203125 C 6.445312 -5.390625 6.375 -5.566406 6.28125 -5.734375 C 6.195312 -5.910156 6.082031 -6.066406 5.9375 -6.203125 C 5.789062 -6.335938 5.613281 -6.445312 5.40625 -6.53125 C 5.207031 -6.613281 4.984375 -6.65625 4.734375 -6.65625 C 4.203125 -6.65625 3.789062 -6.515625 3.5 -6.234375 C 3.207031 -5.953125 3.003906 -5.609375 2.890625 -5.203125 Z M 6.5 -5.203125 "/></g></g></g><g fill="#38b6ff" fill-opacity="1"><g transform="translate(84.61039, 29.64955)"><g><path d="M 3.609375 -9.0625 L 0.234375 -9.0625 L 0.234375 -11.21875 L 9.375 -11.21875 L 9.375 -9.0625 L 6.015625 -9.0625 L 6.015625 0 L 3.609375 0 Z M 3.609375 -9.0625 "/></g></g></g><g fill="#38b6ff" fill-opacity="1"><g transform="translate(93.911837, 29.64955)"><g><path d="M 0.96875 -8.5 L 2.890625 -8.5 L 3.125 -7.53125 L 3.203125 -7.53125 C 3.453125 -7.894531 3.742188 -8.144531 4.078125 -8.28125 C 4.421875 -8.425781 4.796875 -8.5 5.203125 -8.5 L 6.25 -8.5 L 6.25 -6.328125 L 5.375 -6.328125 C 4.6875 -6.328125 4.148438 -6.140625 3.765625 -5.765625 C 3.390625 -5.390625 3.203125 -4.882812 3.203125 -4.25 L 3.203125 0 L 0.96875 0 Z M 0.96875 -8.5 "/></g></g></g><g fill="#38b6ff" fill-opacity="1"><g transform="translate(100.086063, 29.64955)"><g><path d="M 3.453125 0.15625 C 2.984375 0.15625 2.566406 0.09375 2.203125 -0.03125 C 1.835938 -0.164062 1.523438 -0.351562 1.265625 -0.59375 C 1.003906 -0.832031 0.804688 -1.109375 0.671875 -1.421875 C 0.546875 -1.742188 0.484375 -2.097656 0.484375 -2.484375 C 0.484375 -2.867188 0.550781 -3.222656 0.6875 -3.546875 C 0.820312 -3.867188 1.03125 -4.144531 1.3125 -4.375 C 1.59375 -4.613281 1.9375 -4.796875 2.34375 -4.921875 C 2.75 -5.054688 3.222656 -5.125 3.765625 -5.125 L 5.765625 -5.125 L 5.765625 -5.53125 C 5.765625 -5.9375 5.632812 -6.238281 5.375 -6.4375 C 5.125 -6.632812 4.773438 -6.734375 4.328125 -6.734375 C 4.003906 -6.734375 3.726562 -6.660156 3.5 -6.515625 C 3.28125 -6.378906 3.128906 -6.210938 3.046875 -6.015625 L 0.796875 -6.015625 C 0.867188 -6.359375 1 -6.6875 1.1875 -7 C 1.375 -7.3125 1.613281 -7.585938 1.90625 -7.828125 C 2.207031 -8.078125 2.5625 -8.273438 2.96875 -8.421875 C 3.382812 -8.578125 3.863281 -8.65625 4.40625 -8.65625 C 5.539062 -8.65625 6.425781 -8.378906 7.0625 -7.828125 C 7.695312 -7.285156 8.015625 -6.492188 8.015625 -5.453125 L 8.015625 0 L 6.09375 0 L 5.84375 -0.96875 L 5.765625 -0.96875 C 5.679688 -0.84375 5.578125 -0.710938 5.453125 -0.578125 C 5.328125 -0.453125 5.164062 -0.332031 4.96875 -0.21875 C 4.78125 -0.101562 4.554688 -0.015625 4.296875 0.046875 C 4.046875 0.117188 3.765625 0.15625 3.453125 0.15625 Z M 4.015625 -1.6875 C 4.535156 -1.6875 4.957031 -1.832031 5.28125 -2.125 C 5.601562 -2.414062 5.765625 -2.800781 5.765625 -3.28125 L 5.765625 -3.53125 L 3.84375 -3.53125 C 3.4375 -3.53125 3.144531 -3.441406 2.96875 -3.265625 C 2.800781 -3.097656 2.71875 -2.890625 2.71875 -2.640625 C 2.71875 -2.367188 2.816406 -2.140625 3.015625 -1.953125 C 3.222656 -1.773438 3.554688 -1.6875 4.015625 -1.6875 Z M 4.015625 -1.6875 "/></g></g></g><g fill="#38b6ff" fill-opacity="1"><g transform="translate(108.665841, 29.64955)"><g><path d="M 0.96875 -8.5 L 2.890625 -8.5 L 3.125 -7.53125 L 3.203125 -7.53125 C 3.484375 -7.894531 3.816406 -8.171875 4.203125 -8.359375 C 4.585938 -8.554688 5.003906 -8.65625 5.453125 -8.65625 C 5.910156 -8.65625 6.332031 -8.578125 6.71875 -8.421875 C 7.101562 -8.265625 7.429688 -8.035156 7.703125 -7.734375 C 7.972656 -7.441406 8.1875 -7.082031 8.34375 -6.65625 C 8.5 -6.238281 8.578125 -5.753906 8.578125 -5.203125 L 8.578125 0 L 6.328125 0 L 6.328125 -4.890625 C 6.328125 -5.453125 6.191406 -5.882812 5.921875 -6.1875 C 5.660156 -6.5 5.289062 -6.65625 4.8125 -6.65625 C 4.332031 -6.65625 3.941406 -6.488281 3.640625 -6.15625 C 3.347656 -5.832031 3.203125 -5.410156 3.203125 -4.890625 L 3.203125 0 L 0.96875 0 Z M 0.96875 -8.5 "/></g></g></g><g fill="#38b6ff" fill-opacity="1"><g transform="translate(117.806918, 29.64955)"><g><path d="M 4.09375 0.15625 C 3.46875 0.15625 2.929688 0.0820312 2.484375 -0.0625 C 2.035156 -0.207031 1.660156 -0.410156 1.359375 -0.671875 C 1.054688 -0.929688 0.820312 -1.226562 0.65625 -1.5625 C 0.5 -1.894531 0.390625 -2.253906 0.328125 -2.640625 L 2.71875 -2.640625 C 2.769531 -2.441406 2.910156 -2.257812 3.140625 -2.09375 C 3.367188 -1.925781 3.6875 -1.84375 4.09375 -1.84375 C 4.644531 -1.84375 5.019531 -1.910156 5.21875 -2.046875 C 5.425781 -2.179688 5.53125 -2.328125 5.53125 -2.484375 C 5.53125 -2.703125 5.410156 -2.859375 5.171875 -2.953125 C 4.929688 -3.046875 4.628906 -3.128906 4.265625 -3.203125 C 3.898438 -3.273438 3.503906 -3.351562 3.078125 -3.4375 C 2.660156 -3.53125 2.269531 -3.675781 1.90625 -3.875 C 1.539062 -4.070312 1.238281 -4.34375 1 -4.6875 C 0.757812 -5.03125 0.640625 -5.5 0.640625 -6.09375 C 0.640625 -6.457031 0.710938 -6.789062 0.859375 -7.09375 C 1.015625 -7.40625 1.234375 -7.675781 1.515625 -7.90625 C 1.804688 -8.132812 2.164062 -8.316406 2.59375 -8.453125 C 3.019531 -8.585938 3.519531 -8.65625 4.09375 -8.65625 C 4.6875 -8.65625 5.203125 -8.582031 5.640625 -8.4375 C 6.078125 -8.300781 6.441406 -8.113281 6.734375 -7.875 C 7.035156 -7.632812 7.265625 -7.351562 7.421875 -7.03125 C 7.585938 -6.71875 7.707031 -6.378906 7.78125 -6.015625 L 5.375 -6.015625 C 5.332031 -6.171875 5.21875 -6.316406 5.03125 -6.453125 C 4.851562 -6.585938 4.539062 -6.65625 4.09375 -6.65625 C 3.726562 -6.65625 3.445312 -6.597656 3.25 -6.484375 C 3.0625 -6.378906 2.96875 -6.25 2.96875 -6.09375 C 2.96875 -5.875 3.085938 -5.71875 3.328125 -5.625 C 3.566406 -5.53125 3.867188 -5.445312 4.234375 -5.375 C 4.597656 -5.300781 4.988281 -5.21875 5.40625 -5.125 C 5.832031 -5.039062 6.226562 -4.898438 6.59375 -4.703125 C 6.957031 -4.503906 7.257812 -4.226562 7.5 -3.875 C 7.738281 -3.53125 7.859375 -3.066406 7.859375 -2.484375 C 7.859375 -2.140625 7.796875 -1.8125 7.671875 -1.5 C 7.546875 -1.1875 7.335938 -0.90625 7.046875 -0.65625 C 6.765625 -0.40625 6.378906 -0.207031 5.890625 -0.0625 C 5.398438 0.0820312 4.800781 0.15625 4.09375 0.15625 Z M 4.09375 0.15625 "/></g></g></g></svg>